<svg width="31" height="14" viewBox="0 0 31 14" fill="none" xmlns="http://www.w3.org/2000/svg">
<path d="M4.61623 8.83491C4.55212 8.41699 4.39183 7.81997 4.23155 7.19309L2.94926 13.9694H1.37846L2.4684 8.23789C1.82726 9.43194 1.18612 10.5364 0.512915 11.3126C0.448801 10.8051 0.192343 9.99912 0 9.5215C1.122 8.35729 2.30812 6.26769 3.04543 4.47661H1.28229L1.60286 2.83478H3.46218L3.97509 0.0585938H5.54589L5.03298 2.83478H6.53967L6.21909 4.47661H4.71241L4.61623 4.92438C4.90475 5.43185 5.64207 7.19309 5.80235 7.64086L4.61623 8.83491Z" fill="#E93E28"/>
<path d="M11.7016 5.85059C11.7978 6.29836 11.894 6.83568 11.8619 7.22375H15.0997L14.8112 8.65662H10.0026C9.90642 9.01484 9.81025 9.31335 9.68202 9.64172H14.138C14.138 9.64172 14.0418 10.0298 13.9777 10.2387C13.4648 12.1194 13.1121 13.0149 12.6633 13.3731C12.3107 13.7015 11.894 13.7911 11.4452 13.8508C11.0284 13.8806 10.3552 13.9105 9.58585 13.8806C9.64996 13.4328 9.58585 12.806 9.3935 12.4179C9.97053 12.4776 10.5476 12.4776 10.804 12.4776C11.0284 12.4776 11.1566 12.4776 11.3169 12.3582C11.4772 12.2089 11.6696 11.8507 11.926 11.0746H9.04087C8.33562 12.3283 7.18156 13.3134 5.29018 14C5.16195 13.612 4.80932 12.9851 4.4567 12.6866C6.89304 11.8806 7.66241 10.5373 8.20739 8.65662H6.05955L6.34807 7.22375H9.93847C9.93847 6.86553 9.90642 6.44761 9.87436 6.11925L11.7016 5.85059Z" fill="black"/>
<path d="M14.0099 4.20905C14.2664 3.82098 14.5228 3.40306 14.8113 2.95529L13.5932 2.77618H15.9333L16.1898 1.37317H12.8559C12.8559 0.925394 12.8238 0.41792 12.7276 0L10.9324 0.20896C10.9645 0.567177 10.9965 0.985097 10.9965 1.37317H7.43819L7.18173 2.77618H9.81042L8.43196 2.98514C8.49607 3.34336 8.56019 3.79113 8.56019 4.20905H6.6047L6.12384 6.80613H7.85493L8.07933 5.58222H13.9137L13.6893 6.77628H15.4845L15.9654 4.20905H14.0099ZM12.2788 4.20905H10.4195C10.3874 3.79113 10.3233 3.22395 10.2272 2.77618H12.9841C12.7597 3.22395 12.5353 3.76128 12.2788 4.20905Z" fill="black"/>
<path d="M24.6206 9.88043L24.813 8.92518H29.8139L31 2.62653H28.724C29.2689 2.05935 29.878 1.43247 30.423 0.775739L28.4034 0.208562C27.9546 0.954848 27.2173 1.88024 26.5761 2.62653H23.114L23.8513 2.32801C23.6589 1.73099 23.114 0.805591 22.601 0.178711L20.8379 0.805591C21.1905 1.34292 21.6073 2.0295 21.7996 2.59668H19.235L18.0489 8.89533H22.8254L22.6331 9.85057H16.4781L16.1575 11.4924H22.3446L21.8958 13.9104H23.8513L24.3001 11.4924H30.5833L30.9039 9.85057H24.6206V9.88043ZM25.7106 4.0594H28.724L28.5637 5.07435H25.5503L25.7106 4.0594ZM25.2618 6.41766H28.2752L28.0828 7.43261H25.0694L25.2618 6.41766ZM23.114 7.43261H20.1968L20.3891 6.41766H23.3063L23.114 7.43261ZM23.5628 5.07435H20.6456L20.8379 4.0594H23.7551L23.5628 5.07435Z" fill="black"/>
</svg>
