<svg width="48" height="48" viewBox="0 0 48 48" fill="none" xmlns="http://www.w3.org/2000/svg">
<circle cx="24" cy="24" r="23.75" fill="white" stroke="#DCDCDC" stroke-width="0.5"/>
<path d="M24.701 25.2244V15.5919L30.1446 21.0105C30.4495 21.313 30.9472 21.313 31.2495 21.0105C31.5544 20.708 31.5544 20.2143 31.2495 19.9144L24.5915 13.2884C24.43 13.1281 24.2137 13.0532 24.0026 13.0635C23.7889 13.0532 23.5752 13.1281 23.4137 13.2884L16.9511 19.8808C16.6463 20.1832 16.6463 20.677 16.9511 20.9769C17.256 21.2794 17.7537 21.2794 18.056 20.9769L23.1375 15.7547V25.2244C23.1375 25.651 23.4893 26 23.9192 26C24.3492 26 24.701 25.651 24.701 25.2244ZM31.2182 11.5511H16.7818C16.3492 11.5511 16 11.2047 16 10.7756C16 10.3464 16.3492 10 16.7818 10H31.2182C31.6508 10 32 10.3464 32 10.7756C32 11.2047 31.6482 11.5511 31.2182 11.5511Z" fill="#4B4B4B"/>
<path d="M18.38 31.26H23.44V31.96H21.23C21.2 32.32 21.16 32.67 21.1 33.01H23.11V37.75H22.4V33.68H19.37V37.77H18.67V33.01H20.37C20.43 32.67 20.47 32.32 20.5 31.96H18.38V31.26ZM21.7 37.81C22.42 38.37 23.03 38.92 23.52 39.48L23 40.01C22.56 39.47 21.97 38.89 21.21 38.27L21.7 37.81ZM20.49 34.27H21.2V36.05C21.17 37.11 20.91 37.96 20.41 38.58C19.92 39.16 19.12 39.62 18.01 39.96L17.62 39.35C18.69 39.04 19.43 38.63 19.85 38.12C20.25 37.59 20.46 36.9 20.49 36.05V34.27ZM15.97 39.87H14.84L14.68 39.19C15.04 39.21 15.39 39.23 15.72 39.23C15.96 39.23 16.09 39.08 16.09 38.8V31.96H14.55V31.26H18.03V31.96H16.83V38.98C16.83 39.57 16.54 39.87 15.97 39.87ZM25.88 32.87C26.12 33.33 26.35 33.89 26.55 34.55H27.6C27.89 34 28.14 33.41 28.34 32.79L29.01 33.02C28.8 33.59 28.57 34.1 28.31 34.55H29.52V35.25H24.51V34.55H25.86C25.68 34.03 25.47 33.55 25.22 33.11L25.88 32.87ZM29.98 31.25H33.26V31.79C32.95 32.84 32.62 33.82 32.26 34.72C33.01 35.66 33.39 36.44 33.4 37.04C33.4 37.66 33.27 38.09 33.01 38.33C32.73 38.57 32.18 38.7 31.36 38.7L31.13 37.94C31.41 37.96 31.64 37.98 31.83 37.98C32.19 37.96 32.42 37.89 32.52 37.77C32.62 37.64 32.67 37.4 32.68 37.04C32.67 36.45 32.27 35.68 31.49 34.72C31.82 33.93 32.15 32.99 32.47 31.91H30.68V39.98H29.98V31.25ZM24.7 31.8H26.71C26.59 31.47 26.47 31.17 26.34 30.9L27.08 30.77C27.19 31.07 27.3 31.42 27.41 31.8H29.45V32.5H24.7V31.8ZM29.06 36.16V39.93H28.35V39.37H25.79V39.93H25.08V36.16H29.06ZM25.79 38.69H28.35V36.84H25.79V38.69Z" fill="black" fill-opacity="0.9"/>
</svg>
