<svg width="53" height="27" viewBox="0 0 53 27" fill="none" xmlns="http://www.w3.org/2000/svg">
<rect x="0.5" y="0.5" width="52" height="26" rx="13" fill="url(#paint0_linear_7102_489)"/>
<rect x="0.5" y="0.5" width="52" height="26" rx="13" fill="url(#paint1_linear_7102_489)"/>
<path d="M29.3081 19H26.4121L27.7721 11.32C27.5161 11.736 27.0467 12.136 26.3641 12.52C25.6814 12.904 24.9667 13.096 24.2201 13.096L24.0121 10.408C25.0147 10.408 25.9534 10.104 26.8281 9.496C27.7027 8.87733 28.2414 8.20533 28.4441 7.48H31.3241L29.3081 19ZM37.7698 7.368C40.2871 7.368 41.5458 8.49867 41.5458 10.76C41.5458 11.176 41.5031 11.6347 41.4178 12.136L41.0338 14.376C40.7565 16.008 40.1805 17.224 39.3058 18.024C38.4418 18.824 37.2365 19.224 35.6898 19.224C34.1538 19.224 33.0925 18.8293 32.5058 18.04C32.1111 17.496 31.9138 16.76 31.9138 15.832C31.9138 15.384 31.9565 14.8987 32.0418 14.376L32.4258 12.136C32.9805 8.95733 34.7618 7.368 37.7698 7.368ZM34.8258 15.336C34.8258 16.2747 35.2578 16.744 36.1218 16.744C36.6551 16.744 37.0871 16.568 37.4178 16.216C37.7591 15.864 38.0098 15.2293 38.1698 14.312L38.5378 12.2C38.6018 11.848 38.6338 11.544 38.6338 11.288C38.6338 10.328 38.2071 9.848 37.3538 9.848C36.2658 9.86933 35.5831 10.6533 35.3058 12.2L34.9218 14.312C34.8578 14.7067 34.8258 15.048 34.8258 15.336Z" fill="white"/>
<path d="M15.0725 18.512L15.6245 15.416H12.6005L13.1045 12.584H16.1285L16.6565 9.608H19.4885L18.9605 12.584H22.0085L21.5045 15.416H18.4565L17.9045 18.512H15.0725Z" fill="white"/>
<defs>
<linearGradient id="paint0_linear_7102_489" x1="-0.609333" y1="13.5" x2="50.9053" y2="13.5" gradientUnits="userSpaceOnUse">
<stop stop-color="#FF1D46"/>
<stop offset="0.515625" stop-color="#F24C00"/>
<stop offset="1" stop-color="#FF6518"/>
</linearGradient>
<linearGradient id="paint1_linear_7102_489" x1="0.5" y1="0.5" x2="53.5" y2="25.5" gradientUnits="userSpaceOnUse">
<stop stop-color="#47CF3E"/>
<stop offset="1" stop-color="#3BB610"/>
</linearGradient>
</defs>
</svg>
