<svg width="53" height="27" viewBox="0 0 53 27" fill="none" xmlns="http://www.w3.org/2000/svg">
<rect x="0.5" y="0.5" width="52" height="26" rx="13" fill="url(#paint0_linear_7102_445)"/>
<rect x="0.5" y="0.5" width="52" height="26" rx="13" fill="url(#paint1_linear_7102_445)"/>
<path d="M30.8537 15.816C30.8537 16.0933 30.9604 16.3173 31.1737 16.488C31.3977 16.6587 31.755 16.744 32.2457 16.744C32.7364 16.744 33.147 16.5893 33.4777 16.28C33.819 15.96 33.9897 15.5653 33.9897 15.096C33.9897 14.6267 33.867 14.2587 33.6217 13.992C33.387 13.7147 33.0937 13.576 32.7417 13.576C32.1124 13.576 31.627 13.7147 31.2857 13.992L31.1097 14.136H28.3737L29.5417 7.48H37.3657L36.9177 9.992H31.8137L31.5417 11.576C32.011 11.3307 32.715 11.208 33.6537 11.208C34.603 11.208 35.3817 11.5013 35.9897 12.088C36.6084 12.6747 36.9177 13.4693 36.9177 14.472C36.9177 15.88 36.491 17.0267 35.6377 17.912C34.7844 18.7867 33.547 19.224 31.9257 19.224C30.3044 19.224 29.1897 18.9253 28.5817 18.328C28.1337 17.8907 27.9097 17.2773 27.9097 16.488C27.9097 16.2107 27.9364 15.912 27.9897 15.592H30.8697C30.859 15.6667 30.8537 15.7413 30.8537 15.816Z" fill="white"/>
<path d="M19.0725 18.512L19.6245 15.416H16.6005L17.1045 12.584H20.1285L20.6565 9.608H23.4885L22.9605 12.584H26.0085L25.5045 15.416H22.4565L21.9045 18.512H19.0725Z" fill="white"/>
<defs>
<linearGradient id="paint0_linear_7102_445" x1="-0.609333" y1="13.5" x2="50.9053" y2="13.5" gradientUnits="userSpaceOnUse">
<stop stop-color="#FF1D46"/>
<stop offset="0.515625" stop-color="#F24C00"/>
<stop offset="1" stop-color="#FF6518"/>
</linearGradient>
<linearGradient id="paint1_linear_7102_445" x1="0.5" y1="0.5" x2="53.5" y2="25.5" gradientUnits="userSpaceOnUse">
<stop stop-color="#47CF3E"/>
<stop offset="1" stop-color="#3BB610"/>
</linearGradient>
</defs>
</svg>
