<svg width="20" height="20" viewBox="0 0 20 20" fill="none" xmlns="http://www.w3.org/2000/svg">
<path d="M12.7339 13.4675L9.19834 9.99534L12.7339 6.52313C12.8183 6.44028 12.8852 6.34192 12.9308 6.23367C12.9765 6.12542 13 6.0094 13 5.89223C13 5.77506 12.9765 5.65904 12.9308 5.55079C12.8852 5.44254 12.8183 5.34418 12.7339 5.26133C12.6495 5.17848 12.5494 5.11276 12.4392 5.06792C12.3289 5.02308 12.2108 5 12.0915 5C11.9722 5 11.854 5.02308 11.7438 5.06792C11.6336 5.11276 11.5334 5.17848 11.4491 5.26133L7.26653 9.36891C6.91116 9.71792 6.91116 10.2817 7.26653 10.6307L11.4491 14.7383C11.5334 14.8213 11.6335 14.8871 11.7437 14.932C11.854 14.9769 11.9721 15 12.0915 15C12.2108 15 12.329 14.9769 12.4392 14.932C12.5495 14.8871 12.6496 14.8213 12.7339 14.7383C13.0802 14.3893 13.0893 13.8165 12.7339 13.4675Z" fill="white"/>
</svg>
