<svg width="20" height="20" viewBox="0 0 20 20" fill="none" xmlns="http://www.w3.org/2000/svg">
<path d="M7.2661 13.4675L10.8017 9.99534L7.2661 6.52313C7.18173 6.44028 7.11481 6.34192 7.06916 6.23367C7.0235 6.12542 7 6.0094 7 5.89223C7 5.77506 7.0235 5.65904 7.06916 5.55079C7.11481 5.44254 7.18173 5.34418 7.2661 5.26133C7.35046 5.17848 7.45061 5.11276 7.56084 5.06792C7.67107 5.02308 7.78921 5 7.90851 5C8.02782 5 8.14596 5.02308 8.25619 5.06792C8.36641 5.11276 8.46657 5.17848 8.55093 5.26133L12.7335 9.36891C13.0888 9.71792 13.0888 10.2817 12.7335 10.6307L8.55093 14.7383C8.46663 14.8213 8.36649 14.8871 8.25626 14.932C8.14603 14.9769 8.02786 15 7.90851 15C7.78917 15 7.671 14.9769 7.56077 14.932C7.45053 14.8871 7.3504 14.8213 7.2661 14.7383C6.91983 14.3893 6.91072 13.8165 7.2661 13.4675Z" fill="#CCCCCC"/>
</svg>
