<svg width="26" height="26" viewBox="0 0 26 26" fill="none" xmlns="http://www.w3.org/2000/svg">
<rect y="-0.000976562" width="26" height="26" rx="13" fill="url(#paint0_linear_7102_165)"/>
<g clip-path="url(#clip0_7102_165)">
<path d="M10.1792 20.0899C10.7726 20.0899 11.2536 19.5992 11.2536 18.9939C11.2536 18.3885 10.7726 17.8978 10.1792 17.8978C9.58587 17.8978 9.10485 18.3885 9.10485 18.9939C9.10485 19.5992 9.58587 20.0899 10.1792 20.0899Z" fill="white"/>
<path d="M16.4103 20.0899C17.0037 20.0899 17.4847 19.5992 17.4847 18.9939C17.4847 18.3885 17.0037 17.8978 16.4103 17.8978C15.817 17.8978 15.3359 18.3885 15.3359 18.9939C15.3359 19.5992 15.817 20.0899 16.4103 20.0899Z" fill="white"/>
<path d="M19.0324 9.74331C18.9894 9.58987 18.9249 9.39258 18.796 9.23913L18.7315 9.17337C18.7101 9.15145 18.6671 9.12953 18.6026 9.08569C18.4522 8.998 18.3018 8.95416 18.1299 8.95416H8.91171L8.69683 7.66083C8.65386 7.35394 8.52493 7.06897 8.31006 6.84976C8.09518 6.63055 7.81584 6.54287 7.5365 6.52095H5.8175C5.60262 6.52095 5.38774 6.63055 5.21584 6.80592C5.17287 6.87168 5.15138 6.91553 5.1084 6.98129C5.08692 7.06897 5.06543 7.15665 5.06543 7.26626C5.06543 7.35394 5.08692 7.46355 5.1084 7.50739C5.12989 7.57315 5.17287 7.66083 5.21584 7.70467C5.36626 7.88004 5.58113 7.96772 5.79601 7.96772H7.5365L7.66543 8.998C7.75138 9.69947 7.88031 10.6421 8.00923 11.5847C8.13816 12.5273 8.26708 13.4918 8.35303 14.2371C8.39601 14.6097 8.43898 14.9166 8.48196 15.1578C8.52493 15.4866 8.54642 15.5523 8.54642 15.5743C8.63237 15.9031 8.7613 16.1442 8.97617 16.3634C9.19105 16.5826 9.55634 16.7141 9.9646 16.7141H17.0985C17.4638 16.7141 17.8076 16.5826 18.0225 16.3634C18.1299 16.2538 18.2588 16.1003 18.3448 15.9688C18.3877 15.9031 18.4307 15.8154 18.4522 15.7715C18.4952 15.6839 18.4952 15.6181 18.5167 15.5743L19.0324 10.3352V10.2694C19.0324 10.2036 19.0539 10.1379 19.0539 10.0721C19.0753 9.91868 19.0539 9.83099 19.0324 9.74331ZM17.2059 15.4866C17.1844 15.5085 17.1415 15.5304 17.0985 15.5304H9.94312C9.90014 15.5304 9.85717 15.5085 9.83568 15.4866C9.7927 15.4427 9.77122 15.3989 9.77122 15.3331L9.08361 10.1598H17.8291L17.2704 15.3331C17.2704 15.3989 17.2489 15.4427 17.2059 15.4866Z" fill="white"/>
</g>
<defs>
<linearGradient id="paint0_linear_7102_165" x1="-3.1875" y1="1.42238" x2="31.5915" y2="13.6051" gradientUnits="userSpaceOnUse">
<stop stop-color="#FDAF17"/>
<stop offset="1" stop-color="#FB561C"/>
</linearGradient>
<clipPath id="clip0_7102_165">
<rect width="14.1818" height="13.5909" fill="white" transform="translate(5.02273 6.49902)"/>
</clipPath>
</defs>
</svg>
