<svg width="18" height="18" viewBox="0 0 18 18" fill="none" xmlns="http://www.w3.org/2000/svg">
<path d="M9 1.24902C4.71979 1.24902 1.25 4.71882 1.25 8.99902V12.999C1.25 15.0701 2.92893 16.749 5 16.749H9C13.2802 16.749 16.75 13.2792 16.75 8.99902C16.75 4.71882 13.2802 1.24902 9 1.24902Z" fill="#FF4A4A" stroke="white" stroke-width="1.5"/>
<path d="M9.11195 5.21902C9.80195 5.21902 10.372 5.41902 10.822 5.81902C11.262 6.21902 11.482 6.72902 11.482 7.36902C11.482 7.98902 11.242 8.54902 10.782 9.05902C10.502 9.35902 10.002 9.73902 9.30195 10.209C8.57195 10.689 8.13195 11.109 7.97195 11.469H11.492V12.499H6.51195C6.51195 11.769 6.74195 11.139 7.22195 10.599C7.48195 10.299 8.03195 9.85902 8.86195 9.28902C9.32195 8.96902 9.64195 8.69902 9.84195 8.48902C10.152 8.13902 10.312 7.75902 10.312 7.35902C10.312 6.96902 10.202 6.67902 10.002 6.48902C9.79195 6.29902 9.48195 6.20902 9.07195 6.20902C8.63195 6.20902 8.30195 6.35902 8.08195 6.65902C7.86195 6.93902 7.74195 7.36902 7.72195 7.92902H6.55195C6.56195 7.12902 6.79195 6.48902 7.25195 5.99902C7.72195 5.47902 8.34195 5.21902 9.11195 5.21902Z" fill="white"/>
</svg>
