<svg width="24" height="18" viewBox="0 0 24 18" fill="none" xmlns="http://www.w3.org/2000/svg">
<path d="M9 1.24902C4.71979 1.24902 1.25 4.71882 1.25 8.99902V12.999C1.25 15.0701 2.92893 16.749 5 16.749H15C19.2802 16.749 22.75 13.2792 22.75 8.99902C22.75 4.71882 19.2802 1.24902 15 1.24902H9Z" fill="#FF4A4A" stroke="white" stroke-width="1.5"/>
<path d="M8.92 5.21902C9.79 5.21902 10.46 5.52902 10.92 6.15902C11.38 6.77902 11.61 7.62902 11.61 8.72902C11.61 9.88902 11.36 10.839 10.88 11.559C10.39 12.279 9.73 12.639 8.91 12.639C7.5 12.639 6.71 11.989 6.54 10.689H7.68C7.82 11.349 8.23 11.679 8.92 11.679C9.39 11.679 9.77 11.439 10.06 10.979C10.33 10.539 10.47 9.98902 10.47 9.32902V9.23902H10.42C10.21 9.52902 9.96 9.74902 9.67 9.88902C9.39 10.019 9.07 10.089 8.71 10.089C8.01 10.089 7.44 9.85902 7.02 9.39902C6.6 8.95902 6.4 8.38902 6.4 7.68902C6.4 6.96902 6.64 6.37902 7.12 5.91902C7.6 5.44902 8.2 5.21902 8.92 5.21902ZM8.96 6.18902C8.54 6.18902 8.2 6.32902 7.94 6.60902C7.68 6.88902 7.56 7.24902 7.56 7.68902C7.56 8.12902 7.68 8.47902 7.94 8.73902C8.18 8.99902 8.52 9.13902 8.96 9.13902C9.39 9.13902 9.73 8.99902 9.98 8.73902C10.22 8.46902 10.35 8.10902 10.35 7.64902C10.35 7.18902 10.22 6.83902 9.96 6.57902C9.7 6.31902 9.36 6.18902 8.96 6.18902ZM14.9161 5.21902C15.7861 5.21902 16.4561 5.52902 16.9161 6.15902C17.3761 6.77902 17.6061 7.62902 17.6061 8.72902C17.6061 9.88902 17.3561 10.839 16.8761 11.559C16.3861 12.279 15.7261 12.639 14.9061 12.639C13.4961 12.639 12.7061 11.989 12.5361 10.689H13.6761C13.8161 11.349 14.2261 11.679 14.9161 11.679C15.3861 11.679 15.7661 11.439 16.0561 10.979C16.3261 10.539 16.4661 9.98902 16.4661 9.32902V9.23902H16.4161C16.2061 9.52902 15.9561 9.74902 15.6661 9.88902C15.3861 10.019 15.0661 10.089 14.7061 10.089C14.0061 10.089 13.4361 9.85902 13.0161 9.39902C12.5961 8.95902 12.3961 8.38902 12.3961 7.68902C12.3961 6.96902 12.6361 6.37902 13.1161 5.91902C13.5961 5.44902 14.1961 5.21902 14.9161 5.21902ZM14.9561 6.18902C14.5361 6.18902 14.1961 6.32902 13.9361 6.60902C13.6761 6.88902 13.5561 7.24902 13.5561 7.68902C13.5561 8.12902 13.6761 8.47902 13.9361 8.73902C14.1761 8.99902 14.5161 9.13902 14.9561 9.13902C15.3861 9.13902 15.7261 8.99902 15.9761 8.73902C16.2161 8.46902 16.3461 8.10902 16.3461 7.64902C16.3461 7.18902 16.2161 6.83902 15.9561 6.57902C15.6961 6.31902 15.3561 6.18902 14.9561 6.18902Z" fill="white"/>
</svg>
