<svg width="87" height="32" viewBox="0 0 87 32" fill="none" xmlns="http://www.w3.org/2000/svg">
<rect x="0.15" y="0.15" width="86.7" height="31.7" rx="15.85" fill="white" fill-opacity="0.05" stroke="#CCCCCC" stroke-width="0.3"/>
<rect opacity="0.5" x="44" y="7" width="0.5" height="18" fill="black"/>
<path fill-rule="evenodd" clip-rule="evenodd" d="M26 16C26 17.6569 24.6569 19 23 19C21.3431 19 20 17.6569 20 16C20 14.3431 21.3431 13 23 13C24.6569 13 26 14.3431 26 16ZM18 16C18 17.1046 17.1046 18 16 18C14.8954 18 14 17.1046 14 16C14 14.8954 14.8954 14 16 14C17.1046 14 18 14.8954 18 16ZM30 18C31.1046 18 32 17.1046 32 16C32 14.8954 31.1046 14 30 14C28.8954 14 28 14.8954 28 16C28 17.1046 28.8954 18 30 18Z" fill="#333333"/>
<path fill-rule="evenodd" clip-rule="evenodd" d="M73 16C73 19.866 69.866 23 66 23C62.134 23 59 19.866 59 16C59 12.134 62.134 9 66 9C69.866 9 73 12.134 73 16ZM75 16C75 20.9706 70.9706 25 66 25C61.0294 25 57 20.9706 57 16C57 11.0294 61.0294 7 66 7C70.9706 7 75 11.0294 75 16ZM66 19C67.6569 19 69 17.6569 69 16C69 14.3431 67.6569 13 66 13C64.3431 13 63 14.3431 63 16C63 17.6569 64.3431 19 66 19Z" fill="#333333"/>
</svg>
