<svg width="24" height="41" viewBox="0 0 24 41" fill="none" xmlns="http://www.w3.org/2000/svg">
<path d="M12.0413 3.05176C8.46372 3.05176 5.44875 5.53096 4.47823 8.91746C3.61049 9.44002 3.10312 10.4465 3.10312 11.6247C3.10312 13.3333 4.14476 14.7187 5.85333 14.7187C6.23355 14.7187 6.54088 14.4114 6.54088 14.0312V9.21827C6.54088 8.90199 6.31639 8.65376 6.0252 8.57368C7.02909 6.10954 9.34647 4.38389 12.0413 4.38389C14.7361 4.38389 17.0535 6.10954 18.0574 8.57368C17.7662 8.65376 17.5417 8.90199 17.5417 9.21827V14.0312C17.5417 14.4114 17.8491 14.7187 18.2293 14.7187C18.3892 14.7187 18.5325 14.6991 18.6805 14.6757C18.4581 15.9587 17.9193 16.9147 17.3698 17.5763C17.0271 17.989 16.6757 18.288 16.403 18.4787C16.2666 18.5741 16.1605 18.6334 16.0807 18.6721C16.0407 18.6915 16.0081 18.7092 15.9947 18.7151H14.7056C14.458 17.9972 13.67 17.4689 12.7289 17.4689C11.5897 17.4689 10.6662 18.2385 10.6662 19.1878C10.6662 20.1371 11.5897 20.9067 12.7289 20.9067C13.67 20.9067 14.458 20.3784 14.7056 19.6605H16.0592C16.2916 19.6605 16.3507 19.5987 16.4889 19.5316C16.6271 19.4645 16.7895 19.3726 16.9616 19.2523C17.3058 19.0116 17.7211 18.6605 18.1219 18.178C18.8467 17.3052 19.5217 16.0085 19.6903 14.2675C20.501 13.7294 20.9795 12.7606 20.9795 11.6247C20.9795 10.4465 20.4721 9.44002 19.6044 8.91749C18.6339 5.53096 15.6189 3.05176 12.0413 3.05176Z" fill="#333333"/>
<path d="M9.528 34.48V38.236H8.688V37.72H3.528V38.236H2.688V34.48H9.528ZM3.528 36.94H8.688V35.26H3.528V36.94ZM4.488 29.128L5.328 29.308C5.148 29.584 4.968 29.848 4.776 30.1H9.204V30.796C8.712 31.48 8.004 32.08 7.08 32.608C8.388 33.124 9.852 33.436 11.472 33.556L11.28 34.336C9.36 34.192 7.668 33.772 6.18 33.052C4.764 33.7 2.976 34.204 0.816 34.576L0.492 33.808C2.424 33.496 4.032 33.1 5.304 32.596C4.692 32.236 4.128 31.828 3.612 31.372C3.144 31.792 2.64 32.164 2.112 32.5L1.56 31.828C2.748 31.144 3.72 30.244 4.488 29.128ZM6.192 32.212C7.02 31.804 7.68 31.336 8.172 30.832H4.152L4.116 30.868C4.752 31.396 5.448 31.84 6.192 32.212ZM10.872 28.096V30.364H9.996V28.876H2.004V30.364H1.128V28.096H5.52C5.376 27.784 5.232 27.508 5.076 27.256L6.024 27.112C6.168 27.4 6.3 27.736 6.444 28.096H10.872ZM14.184 31.3V33.304H16.116V31.3H14.184ZM16.116 30.52V28.492H14.184V30.52H16.116ZM14.172 34.084C14.1 35.764 13.812 37.144 13.32 38.224L12.672 37.624C13.152 36.544 13.392 35.152 13.404 33.472V27.712H16.908V37.072C16.908 37.792 16.572 38.164 15.9 38.164H14.94L14.736 37.396C15.072 37.42 15.372 37.444 15.66 37.444C15.96 37.444 16.116 37.228 16.116 36.796V34.084H14.172ZM18.732 32.896V38.212H17.916V27.7H22.776C22.776 29.188 22.704 30.172 22.56 30.652C22.416 31.144 21.972 31.396 21.216 31.396H20.244L20.016 30.652C20.22 30.652 20.484 30.664 20.82 30.664C21.108 30.664 21.312 30.64 21.456 30.604C21.6 30.556 21.708 30.436 21.78 30.256C21.864 29.992 21.912 29.404 21.936 28.492H18.732V32.128H22.812V32.86C22.584 34.096 22.188 35.152 21.636 36.016C22.176 36.544 22.812 37.012 23.544 37.432L23.112 38.164C22.344 37.72 21.696 37.228 21.144 36.688C20.616 37.3 20.004 37.792 19.284 38.176L18.828 37.48C19.512 37.108 20.088 36.64 20.568 36.064C19.8 35.128 19.284 34.072 19.02 32.896H18.732ZM19.764 32.896C20.016 33.82 20.448 34.648 21.06 35.392C21.504 34.672 21.828 33.844 22.044 32.896H19.764Z" fill="#666666"/>
</svg>
