<svg width="191" height="40" viewBox="0 0 191 40" fill="none" xmlns="http://www.w3.org/2000/svg">
<rect width="191" height="40" rx="20" fill="url(#paint0_linear_7102_548)"/>
<path d="M70.076 15.312V27.36H68.956V26.288H65.948V27.36H64.844V15.312H70.076ZM65.948 25.184H68.956V16.416H65.948V25.184ZM58.956 12.976H60.108V16.208H63.372C63.372 21.2 63.292 24.288 63.132 25.472C62.972 26.784 62.188 27.456 60.78 27.456C60.54 27.456 60.14 27.424 59.564 27.392L59.276 26.336C59.788 26.368 60.236 26.4 60.62 26.4C61.436 26.4 61.916 25.936 62.044 25.024C62.14 24.192 62.204 21.616 62.236 17.328H60.108C60.044 22.048 58.988 25.488 56.94 27.664L56.092 26.912C57.948 24.912 58.908 21.712 58.956 17.328H56.396V16.208H58.956V12.976ZM78.796 16.64C78.06 15.296 77.18 14.272 76.156 13.536L77.116 12.928C78.54 13.92 79.74 15.728 80.732 18.32C82.236 22.144 84.236 24.848 86.764 26.432L86.044 27.36C83.452 25.792 81.34 22.88 79.692 18.656C79.596 18.4 79.516 18.176 79.436 17.984C78.38 22.064 76.172 25.2 72.812 27.376L72.124 26.4C75.548 24.16 77.772 20.896 78.796 16.64ZM94.172 13.568V23.616H93.148V14.64H89.836V23.616H88.796V13.568H94.172ZM96.444 12.88L97.564 13.024C97.404 13.792 97.212 14.528 96.988 15.216H102.284C102.284 20.784 102.188 24.192 102.028 25.472C101.868 26.784 101.132 27.44 99.852 27.44C99.42 27.44 98.668 27.424 97.612 27.392L97.34 26.352C98.236 26.384 99.004 26.416 99.676 26.416C100.38 26.416 100.796 26 100.924 25.168C101.052 24.224 101.132 21.28 101.164 16.336H96.54C96.108 17.296 95.58 18.176 94.94 18.96L94.236 18.048C95.324 16.64 96.06 14.928 96.444 12.88ZM98.908 19.968C99.452 21.248 99.948 22.64 100.428 24.144L99.484 24.624C99.356 24.208 99.244 23.824 99.132 23.472C97.884 23.76 96.524 23.968 95.036 24.128L94.844 23.136C95.452 22.656 96.22 20.864 97.132 17.76L98.172 18.096C97.484 20.176 96.812 21.824 96.156 23.04C97.1 22.912 97.996 22.752 98.828 22.544C98.572 21.776 98.3 21.056 98.028 20.4L98.908 19.968ZM91.004 15.808H91.964V21.056C91.932 22.832 91.676 24.24 91.18 25.296C90.7 26.288 89.916 27.056 88.828 27.616L88.22 26.656C89.244 26.128 89.964 25.44 90.38 24.576C90.764 23.68 90.972 22.496 91.004 21.056V15.808ZM92.62 24.096C93.516 24.96 94.268 25.824 94.876 26.688L94.044 27.504C93.532 26.672 92.812 25.776 91.884 24.816L92.62 24.096ZM111.532 12.912L112.62 13.2C112.444 14.032 112.252 14.8 112.028 15.504H118.236C118.236 20.848 118.156 24.144 117.996 25.392C117.82 26.8 116.956 27.504 115.404 27.504C115.18 27.504 114.78 27.488 114.204 27.456L113.932 26.416C114.444 26.448 114.876 26.48 115.244 26.48C116.22 26.48 116.78 25.968 116.924 24.944C117.036 24.048 117.1 21.264 117.132 16.624H116.044C115.692 19.296 115.212 21.408 114.588 22.96C113.852 24.624 112.764 26.128 111.308 27.456L110.604 26.544C111.948 25.328 112.94 23.984 113.612 22.512C114.236 21.024 114.7 19.056 115.004 16.624H113.756C113.116 20.112 111.9 22.64 110.108 24.224L109.356 23.36C111.004 21.952 112.124 19.696 112.732 16.624H111.628C111.196 17.648 110.716 18.48 110.172 19.152L109.324 18.432C110.348 17.152 111.084 15.312 111.532 12.912ZM105.74 17.392C105.564 18.192 105.356 18.976 105.1 19.728L104.092 19.44C104.7 17.744 105.036 15.968 105.116 14.096L106.124 14.176C106.092 14.88 106.028 15.584 105.932 16.272H107.052V12.944H108.172V16.272H109.516V17.392H108.172V21.232C108.62 21.024 109.036 20.816 109.452 20.592V21.68C109.036 21.904 108.604 22.112 108.172 22.32V27.6H107.052V22.8C106.236 23.12 105.404 23.424 104.54 23.696L104.268 22.576C105.228 22.352 106.156 22.064 107.052 21.712V17.392H105.74ZM120.908 14.992H124.668C124.972 14.32 125.276 13.6 125.564 12.848L126.716 13.104C126.46 13.76 126.188 14.384 125.916 14.992H134.076V16.112H125.356C124.636 17.472 123.852 18.672 122.988 19.728H127.116V17.376H128.284V19.728H133.212V20.784H128.284V23.136H134.348V24.256H128.284V27.696H127.116V24.256H120.668V23.136H127.116V20.784H121.788L121.532 19.728C122.46 18.768 123.324 17.552 124.108 16.112H120.908V14.992Z" fill="white"/>
<defs>
<linearGradient id="paint0_linear_7102_548" x1="-23.4159" y1="2.18978" x2="52.1142" y2="128.524" gradientUnits="userSpaceOnUse">
<stop stop-color="#FDAF17"/>
<stop offset="1" stop-color="#FB561C"/>
</linearGradient>
</defs>
</svg>
