<svg width="24" height="41" viewBox="0 0 24 41" fill="none" xmlns="http://www.w3.org/2000/svg">
<path fill-rule="evenodd" clip-rule="evenodd" d="M13.3568 3.77688L15.2821 7.17027C15.5043 7.56193 15.8849 7.83846 16.3261 7.92877L20.1483 8.71119C21.335 8.95412 21.8042 10.398 20.9869 11.292L18.3545 14.1717C18.0507 14.5041 17.9053 14.9515 17.9557 15.399L18.3928 19.2759C18.5284 20.4796 17.3002 21.372 16.1974 20.871L12.6452 19.2573C12.2352 19.0711 11.7647 19.0711 11.3548 19.2573L7.80261 20.871C6.69972 21.372 5.47153 20.4796 5.60721 19.2759L6.04422 15.399C6.09465 14.9515 5.94927 14.5041 5.64545 14.1717L3.01309 11.292C2.19579 10.398 2.66492 8.95412 3.85166 8.71119L7.6739 7.92877C8.11506 7.83846 8.49567 7.56193 8.71788 7.17027L10.6432 3.77688C11.2409 2.7233 12.7591 2.7233 13.3568 3.77688ZM12 4.78987L10.1791 7.9993C9.71757 8.81274 8.92706 9.38708 8.01082 9.57464L4.39578 10.3146L6.88544 13.0382C7.51645 13.7285 7.8184 14.6578 7.71364 15.5871L7.30033 19.2539L10.6599 17.7277C11.5114 17.3409 12.4885 17.3409 13.34 17.7277L16.6996 19.2539L16.2863 15.5871C16.1816 14.6578 16.4835 13.7285 17.1145 13.0382L19.6042 10.3146L15.9891 9.57464C15.0729 9.38708 14.2824 8.81274 13.8209 7.9993L12 4.78987Z" fill="#333333"/>
<path d="M1.08 35.824L0.816 35.092C0.984 35.02 1.08 34.924 1.08 34.804V28.228H1.92V34.78C2.52 34.612 3.12 34.408 3.72 34.18V27.256H4.572V38.128H3.72V35.02C2.88 35.32 1.992 35.584 1.08 35.824ZM7.02 29.872C6.876 30.256 6.732 30.616 6.576 30.952C7.008 32.128 7.56 33.208 8.256 34.192C8.976 32.968 9.36 31.528 9.432 29.872H7.02ZM6.072 31.888C5.844 32.248 5.604 32.572 5.352 32.872L4.812 32.212C5.796 30.964 6.468 29.272 6.816 27.16L7.68 27.304C7.56 27.916 7.428 28.492 7.284 29.02H11.292V29.872H10.26C10.176 31.84 9.696 33.532 8.808 34.924C9.6 35.908 10.512 36.784 11.568 37.552L10.98 38.248C9.936 37.468 9.036 36.604 8.28 35.668C7.488 36.664 6.468 37.492 5.22 38.164L4.728 37.384C5.988 36.76 6.996 35.956 7.74 34.972C7.068 34.012 6.504 32.992 6.072 31.888ZM12.78 27.964H15.576V27.196H16.464V27.964H19.548V27.208H20.436V27.964H23.232V28.72H20.436V29.38H21.048V30.052H22.008C21.888 29.728 21.756 29.428 21.612 29.152L22.344 29.032C22.464 29.332 22.596 29.668 22.716 30.052H23.316V30.784H21.06C21.108 32.308 21.204 33.484 21.348 34.3C21.372 34.444 21.396 34.576 21.42 34.696C21.756 33.808 21.984 32.776 22.104 31.588L22.836 31.744C22.644 33.448 22.272 34.828 21.708 35.908C21.78 36.148 21.852 36.352 21.936 36.52C22.152 36.976 22.332 37.216 22.452 37.216C22.596 37.204 22.74 36.664 22.86 35.584L23.484 35.932C23.28 37.42 22.98 38.164 22.596 38.164C22.284 38.164 21.936 37.864 21.576 37.288C21.456 37.096 21.36 36.892 21.264 36.652C20.808 37.276 20.28 37.768 19.68 38.128L19.272 37.48L19.476 37.348H16.332V31.492H19.752V32.188H18.696V33.232H19.74V35.512H18.696V36.652H19.752V37.144C20.208 36.76 20.604 36.292 20.94 35.728C20.832 35.38 20.736 35.008 20.664 34.6C20.472 33.616 20.352 32.344 20.304 30.784H15.66V34.444C15.636 36.004 15.36 37.252 14.832 38.2L14.208 37.636C14.64 36.868 14.856 35.812 14.88 34.444V34.312H13.92C13.872 35.92 13.572 37.036 13.044 37.672L12.444 37.204C12.924 36.676 13.188 35.716 13.236 34.312H12.552V33.592H14.88V32.38H13.044V29.644H13.788V31.66H14.88V30.052H20.292V29.56H19.548V28.72H16.464V29.548H15.576V28.72H12.78V27.964ZM18.012 32.188H17.04V33.232H18.012V32.188ZM17.04 33.868V34.864H19.068V33.868H17.04ZM17.04 35.512V36.652H18.012V35.512H17.04Z" fill="#666666"/>
</svg>
