<svg width="37" height="48" viewBox="0 0 37 48" fill="none" xmlns="http://www.w3.org/2000/svg">
<path fill-rule="evenodd" clip-rule="evenodd" d="M26.4242 13.3306C26.606 13.5452 26.6969 13.821 26.7575 14.0355C26.7878 14.1581 26.8181 14.2806 26.7878 14.4952C26.7878 14.5411 26.7802 14.5871 26.7727 14.6331C26.7651 14.679 26.7575 14.725 26.7575 14.771V14.8629L26.0302 22.1871C26.0177 22.2125 26.0103 22.2431 26.0017 22.279C25.9895 22.3298 25.9748 22.3911 25.9393 22.4629C25.909 22.5242 25.8484 22.6468 25.7878 22.7387C25.6666 22.9226 25.4848 23.1371 25.3333 23.2903C25.0302 23.5968 24.5454 23.7806 24.0302 23.7806H13.9696C13.3939 23.7806 12.8787 23.5968 12.5757 23.2903C12.2727 22.9839 12.0908 22.6468 11.9696 22.1871C11.9696 22.1774 11.9666 22.1616 11.9605 22.1299C11.9474 22.0615 11.9202 21.9191 11.8787 21.6048C11.8181 21.2677 11.7575 20.8387 11.6969 20.3177C11.5757 19.2758 11.3939 17.9274 11.2121 16.6097C11.0302 15.2919 10.8484 13.9742 10.7272 12.9935L10.5454 11.5532H8.09085C7.78782 11.5532 7.48479 11.4306 7.27267 11.1855C7.21206 11.1242 7.15146 11.0016 7.12115 10.9097C7.09085 10.8484 7.06055 10.6952 7.06055 10.5726C7.06055 10.4193 7.09085 10.2968 7.12115 10.1742C7.15146 10.1282 7.17418 10.0899 7.19691 10.0516C7.21964 10.0133 7.24237 9.97499 7.27267 9.92903C7.51509 9.68387 7.81812 9.53064 8.12115 9.53064H10.5454C10.9393 9.56128 11.3333 9.68387 11.6363 9.99032C11.9393 10.2968 12.1212 10.6952 12.1818 11.1242L12.4848 12.9323H25.4848C25.7272 12.9323 25.9393 12.9935 26.1515 13.1161C26.1862 13.1395 26.2165 13.1585 26.2424 13.1747C26.2842 13.2008 26.3145 13.2198 26.3333 13.2387L26.4242 13.3306ZM24.0302 22.1258C24.0909 22.1258 24.1515 22.0952 24.1818 22.0645C24.2424 22.0032 24.2727 21.9419 24.2727 21.85L25.0605 14.6177H12.7272L13.6969 21.85C13.6969 21.9419 13.7272 22.0032 13.7878 22.0645C13.8181 22.0952 13.8787 22.1258 13.9393 22.1258H24.0302ZM23.0601 28.5C23.8969 28.5 24.5752 27.814 24.5752 26.9677C24.5752 26.1215 23.8969 25.4355 23.0601 25.4355C22.2233 25.4355 21.5449 26.1215 21.5449 26.9677C21.5449 27.814 22.2233 28.5 23.0601 28.5ZM14.272 28.5C15.1088 28.5 15.7871 27.814 15.7871 26.9678C15.7871 26.1215 15.1088 25.4355 14.272 25.4355C13.4352 25.4355 12.7568 26.1215 12.7568 26.9678C12.7568 27.814 13.4352 28.5 14.272 28.5Z" fill="#333333"/>
<path d="M28 1.25C23.7198 1.25 20.25 4.71979 20.25 9V13C20.25 15.0711 21.9289 16.75 24 16.75H28C32.2802 16.75 35.75 13.2802 35.75 9C35.75 4.71979 32.2802 1.25 28 1.25Z" fill="#FF4A4A" stroke="white" stroke-width="1.5"/>
<path d="M28.112 5.22C28.802 5.22 29.372 5.42 29.822 5.82C30.262 6.22 30.482 6.73 30.482 7.37C30.482 7.99 30.242 8.55 29.782 9.06C29.502 9.36 29.002 9.74 28.302 10.21C27.572 10.69 27.132 11.11 26.972 11.47H30.492V12.5H25.512C25.512 11.77 25.742 11.14 26.222 10.6C26.482 10.3 27.032 9.86 27.862 9.29C28.322 8.97 28.642 8.7 28.842 8.49C29.152 8.14 29.312 7.76 29.312 7.36C29.312 6.97 29.202 6.68 29.002 6.49C28.792 6.3 28.482 6.21 28.072 6.21C27.632 6.21 27.302 6.36 27.082 6.66C26.862 6.94 26.742 7.37 26.722 7.93H25.552C25.562 7.13 25.792 6.49 26.252 6C26.722 5.48 27.342 5.22 28.112 5.22Z" fill="white"/>
<path d="M5.004 34.676V42.212H4.236V35.48H1.752V42.212H0.972V34.676H5.004ZM6.708 34.16L7.548 34.268C7.428 34.844 7.284 35.396 7.116 35.912H11.088C11.088 40.088 11.016 42.644 10.896 43.604C10.776 44.588 10.224 45.08 9.264 45.08C8.94 45.08 8.376 45.068 7.584 45.044L7.38 44.264C8.052 44.288 8.628 44.312 9.132 44.312C9.66 44.312 9.972 44 10.068 43.376C10.164 42.668 10.224 40.46 10.248 36.752H6.78C6.456 37.472 6.06 38.132 5.58 38.72L5.052 38.036C5.868 36.98 6.42 35.696 6.708 34.16ZM8.556 39.476C8.964 40.436 9.336 41.48 9.696 42.608L8.988 42.968C8.892 42.656 8.808 42.368 8.724 42.104C7.788 42.32 6.768 42.476 5.652 42.596L5.508 41.852C5.964 41.492 6.54 40.148 7.224 37.82L8.004 38.072C7.488 39.632 6.984 40.868 6.492 41.78C7.2 41.684 7.872 41.564 8.496 41.408C8.304 40.832 8.1 40.292 7.896 39.8L8.556 39.476ZM2.628 36.356H3.348V40.292C3.324 41.624 3.132 42.68 2.76 43.472C2.4 44.216 1.812 44.792 0.996 45.212L0.54 44.492C1.308 44.096 1.848 43.58 2.16 42.932C2.448 42.26 2.604 41.372 2.628 40.292V36.356ZM3.84 42.572C4.512 43.22 5.076 43.868 5.532 44.516L4.908 45.128C4.524 44.504 3.984 43.832 3.288 43.112L3.84 42.572ZM18.024 34.184L18.84 34.4C18.708 35.024 18.564 35.6 18.396 36.128H23.052C23.052 40.136 22.992 42.608 22.872 43.544C22.74 44.6 22.092 45.128 20.928 45.128C20.76 45.128 20.46 45.116 20.028 45.092L19.824 44.312C20.208 44.336 20.532 44.36 20.808 44.36C21.54 44.36 21.96 43.976 22.068 43.208C22.152 42.536 22.2 40.448 22.224 36.968H21.408C21.144 38.972 20.784 40.556 20.316 41.72C19.764 42.968 18.948 44.096 17.856 45.092L17.328 44.408C18.336 43.496 19.08 42.488 19.584 41.384C20.052 40.268 20.4 38.792 20.628 36.968H19.692C19.212 39.584 18.3 41.48 16.956 42.668L16.392 42.02C17.628 40.964 18.468 39.272 18.924 36.968H18.096C17.772 37.736 17.412 38.36 17.004 38.864L16.368 38.324C17.136 37.364 17.688 35.984 18.024 34.184ZM13.68 37.544C13.548 38.144 13.392 38.732 13.2 39.296L12.444 39.08C12.9 37.808 13.152 36.476 13.212 35.072L13.968 35.132C13.944 35.66 13.896 36.188 13.824 36.704H14.664V34.208H15.504V36.704H16.512V37.544H15.504V40.424C15.84 40.268 16.152 40.112 16.464 39.944V40.76C16.152 40.928 15.828 41.084 15.504 41.24V45.2H14.664V41.6C14.052 41.84 13.428 42.068 12.78 42.272L12.576 41.432C13.296 41.264 13.992 41.048 14.664 40.784V37.544H13.68ZM25.056 35.744H27.876C28.104 35.24 28.332 34.7 28.548 34.136L29.412 34.328C29.22 34.82 29.016 35.288 28.812 35.744H34.932V36.584H28.392C27.852 37.604 27.264 38.504 26.616 39.296H29.712V37.532H30.588V39.296H34.284V40.088H30.588V41.852H35.136V42.692H30.588V45.272H29.712V42.692H24.876V41.852H29.712V40.088H25.716L25.524 39.296C26.22 38.576 26.868 37.664 27.456 36.584H25.056V35.744Z" fill="#666666"/>
</svg>
