<svg width="82" height="32" viewBox="0 0 82 32" fill="none" xmlns="http://www.w3.org/2000/svg">
<g filter="url(#filter0_b_7102_39)">
<rect width="82" height="32" rx="16" fill="#999999" fill-opacity="0.5"/>
<path d="M23.6689 21.2719L23.6688 21.2718L18.2891 15.9997L23.6688 10.728L23.6688 10.728C24.0302 10.3739 24.0302 9.79966 23.6689 9.44546C23.489 9.26807 23.2527 9.18003 23.0172 9.18003C22.7817 9.18003 22.5456 9.2681 22.3648 9.44474L22.3647 9.44484L16.3306 15.3585L23.6689 21.2719ZM23.6689 21.2719C24.0301 21.6265 24.0303 22.2015 23.6688 22.5553M23.6689 21.2719L23.6688 22.5553M23.5988 9.51677C23.9202 9.83175 23.9202 10.3416 23.5988 10.6566L18.2177 15.9296L23.5988 9.51677ZM23.5988 9.51677C23.4386 9.35878 23.2279 9.28003 23.0172 9.28003C22.8065 9.28003 22.5959 9.35876 22.4347 9.51626L23.5988 9.51677ZM23.6688 22.5553C23.3085 22.9083 22.7249 22.9083 22.3647 22.5552L16.3305 16.6412L16.3305 16.6412C15.9697 16.2871 15.9695 15.7118 16.3305 15.3586L23.6688 22.5553Z" fill="white" stroke="white" stroke-width="0.2"/>
<rect opacity="0.5" x="40" y="8" width="2" height="16" rx="1" fill="white"/>
<g clip-path="url(#clip0_7102_39)">
<path d="M68.3481 15.5171C67.8801 15.5171 67.5082 15.901 67.5082 16.357V20.5806C67.5082 21.0485 67.1242 21.4205 66.6683 21.4205H57.3572C56.8893 21.4205 56.5173 21.0365 56.5173 20.5806V16.357C56.5173 15.8891 56.1334 15.5171 55.6774 15.5171C55.2215 15.5171 54.8375 15.901 54.8375 16.357V21.0005C54.8375 22.1644 55.7854 23.1123 56.9493 23.1123H67.0882C68.2521 23.1123 69.2 22.1644 69.2 21.0005V16.357C69.188 15.8891 68.816 15.5171 68.3481 15.5171Z" fill="white"/>
<path d="M59.4449 12.7214L61.1607 11.2455V18.4688C61.1607 18.9367 61.5447 19.3087 62.0006 19.3087C62.4566 19.3087 62.8405 18.9247 62.8405 18.4688V11.4255L64.3524 12.7214C64.6883 13.0573 65.2283 13.0573 65.5642 12.7214C65.9002 12.3854 65.9002 11.8455 65.5642 11.5095L62.6125 8.98977C62.3966 8.77379 62.0846 8.6898 61.7966 8.7618C61.5807 8.7618 61.3527 8.83379 61.1847 9.01377L58.257 11.5215C57.933 11.8575 57.933 12.3854 58.257 12.7214C58.581 13.0453 59.1209 13.0453 59.4449 12.7214Z" fill="white"/>
</g>
</g>
<defs>
<filter id="filter0_b_7102_39" x="-100" y="-100" width="282" height="232" filterUnits="userSpaceOnUse" color-interpolation-filters="sRGB">
<feFlood flood-opacity="0" result="BackgroundImageFix"/>
<feGaussianBlur in="BackgroundImageFix" stdDeviation="50"/>
<feComposite in2="SourceAlpha" operator="in" result="effect1_backgroundBlur_7102_39"/>
<feBlend mode="normal" in="SourceGraphic" in2="effect1_backgroundBlur_7102_39" result="shape"/>
</filter>
<clipPath id="clip0_7102_39">
<rect width="16" height="16" fill="white" transform="translate(54 8)"/>
</clipPath>
</defs>
</svg>
