<svg width="20" height="20" viewBox="0 0 20 20" fill="none" xmlns="http://www.w3.org/2000/svg">
<circle cx="10" cy="10" r="7" fill="#F87036"/>
<path d="M10.8119 11.0076C11.1701 10.757 11.4708 10.5197 11.7126 10.2942C11.9543 10.0687 12.1385 9.85937 12.2638 9.66775C12.3803 9.48497 12.4746 9.27862 12.5454 9.04867M10.8119 11.0076L11.0994 7.2489C11.103 7.25249 11.1067 7.25653 11.1113 7.26147L11.1116 7.26177C11.1155 7.26603 11.1201 7.27102 11.1249 7.27583M10.8119 11.0076C10.6454 11.1241 10.5363 11.239 10.4862 11.3525L10.8119 11.0076ZM12.5454 9.04867L12.5931 9.06346C12.6655 8.82966 12.7015 8.57551 12.7015 8.3043C12.7015 7.5731 12.4411 6.95851 11.9224 6.46537L11.9224 6.46534C11.4193 5.98782 10.7635 5.74999 9.95998 5.74999C9.57782 5.74999 9.22461 5.82046 8.90096 5.96046L8.90078 5.96053C8.57717 6.10202 8.29568 6.30679 8.05661 6.57443C7.81729 6.84235 7.62854 7.17249 7.48965 7.56079L7.48965 7.56079C7.40129 7.80789 7.3401 8.07538 7.30433 8.3645C7.26549 8.67846 7.49208 8.96113 7.80526 8.99665L7.80531 8.99665C8.10741 9.03058 8.38555 8.81908 8.42932 8.51648C8.50524 8.00111 8.65341 7.61132 8.87131 7.34072L8.87138 7.34063C9.15389 6.98821 9.51549 6.81398 9.9585 6.81398C10.4246 6.81398 10.8036 6.96027 11.0998 7.24933L11.1348 7.21355C11.1392 7.21797 11.1436 7.22276 11.148 7.22755C11.1524 7.23234 11.1569 7.23713 11.1613 7.24155M12.5454 9.04867L12.5932 9.06338C12.5212 9.29724 12.4251 9.50775 12.306 9.69462L12.3057 9.69511C12.1774 9.89123 11.9902 10.1036 11.7467 10.3308C11.5027 10.5583 11.2 10.7971 10.8406 11.0486L10.8406 11.0486C10.6771 11.1629 10.5767 11.2714 10.5319 11.3727L10.5318 11.3729C10.4862 11.475 10.461 11.6402 10.461 11.8728V12.2811C10.461 12.5946 10.2073 12.85 9.89217 12.85H9.86417C9.55069 12.85 9.29532 12.5963 9.29532 12.2811V11.8873C9.279 11.5312 9.32685 11.2129 9.44361 10.9339L8.92081 6.00635C9.23772 5.86927 9.58411 5.79999 9.95998 5.79999C10.753 5.79999 11.3956 6.03435 11.888 6.50161C12.3965 6.98508 12.6515 7.58647 12.6515 8.3043C12.6515 8.5711 12.6161 8.8202 12.5454 9.04867ZM11.1613 7.24155L11.1239 7.27481C11.1243 7.27515 11.1246 7.27549 11.1249 7.27583M11.1613 7.24155C11.3057 7.40369 11.4163 7.56731 11.4929 7.73387L11.1249 7.27583M11.1613 7.24155L11.1259 7.27691C11.1256 7.27655 11.1252 7.27619 11.1249 7.27583" fill="white" stroke="white" stroke-width="0.1"/>
<path d="M9.2998 14.2C9.2998 14.3591 9.36302 14.5117 9.47554 14.6243C9.58806 14.7368 9.74067 14.8 9.8998 14.8C10.0589 14.8 10.2115 14.7368 10.3241 14.6243C10.4366 14.5117 10.4998 14.3591 10.4998 14.2C10.4998 14.0409 10.4366 13.8883 10.3241 13.7757C10.2115 13.6632 10.0589 13.6 9.8998 13.6C9.74067 13.6 9.58806 13.6632 9.47554 13.7757C9.36302 13.8883 9.2998 14.0409 9.2998 14.2Z" fill="white"/>
</svg>
